<svg width="349" height="349" viewBox="0 0 349 349" fill="none" xmlns="http://www.w3.org/2000/svg">
<g filter="url(#filter0_ii_0_1)">
<path d="M36.7368 80.241C36.7368 78.706 36.7368 77.9384 36.757 77.2895C37.4427 55.1943 55.1943 37.4427 77.2895 36.757C77.9384 36.7368 78.706 36.7368 80.241 36.7368C88.4279 36.7368 92.5213 36.7368 95.9825 36.8443C213.824 40.5016 308.498 135.176 312.156 253.017C312.263 256.479 312.263 260.572 312.263 268.759C312.263 270.294 312.263 271.062 312.243 271.711C311.557 293.806 293.806 311.557 271.711 312.243C271.062 312.263 270.294 312.263 268.759 312.263H98.6762C79.9616 312.263 70.6042 312.263 63.1814 309.324C52.437 305.07 43.9298 296.563 39.6758 285.819C36.7368 278.396 36.7368 269.038 36.7368 250.324V80.241Z" fill="#1B9388"/>
</g>
<g filter="url(#filter1_d_0_1)">
<path d="M77.0526 186.961C77.0526 176.576 85.471 168.158 95.8557 168.158L240.144 168.158C250.529 168.158 258.947 176.576 258.947 186.961L258.947 190.895C258.947 241.124 218.229 281.842 168 281.842C117.771 281.842 77.0526 241.124 77.0526 190.895V186.961Z" fill="#54E9D2"/>
</g>
<defs>
<filter id="filter0_ii_0_1" x="26.7368" y="26.7368" width="295.526" height="295.526" filterUnits="userSpaceOnUse" color-interpolation-filters="sRGB">
<feFlood flood-opacity="0" result="BackgroundImageFix"/>
<feBlend mode="normal" in="SourceGraphic" in2="BackgroundImageFix" result="shape"/>
<feColorMatrix in="SourceAlpha" type="matrix" values="0 0 0 0 0 0 0 0 0 0 0 0 0 0 0 0 0 0 127 0" result="hardAlpha"/>
<feOffset dx="10" dy="10"/>
<feGaussianBlur stdDeviation="5"/>
<feComposite in2="hardAlpha" operator="arithmetic" k2="-1" k3="1"/>
<feColorMatrix type="matrix" values="0 0 0 0 0 0 0 0 0 1 0 0 0 0 0.916666 0 0 0 0.25 0"/>
<feBlend mode="normal" in2="shape" result="effect1_innerShadow_0_1"/>
<feColorMatrix in="SourceAlpha" type="matrix" values="0 0 0 0 0 0 0 0 0 0 0 0 0 0 0 0 0 0 127 0" result="hardAlpha"/>
<feOffset dx="-10" dy="-10"/>
<feGaussianBlur stdDeviation="5"/>
<feComposite in2="hardAlpha" operator="arithmetic" k2="-1" k3="1"/>
<feColorMatrix type="matrix" values="0 0 0 0 0 0 0 0 0 0 0 0 0 0 0 0 0 0 0.25 0"/>
<feBlend mode="normal" in2="effect1_innerShadow_0_1" result="effect2_innerShadow_0_1"/>
</filter>
<filter id="filter1_d_0_1" x="77.0526" y="168.158" width="191.895" height="123.684" filterUnits="userSpaceOnUse" color-interpolation-filters="sRGB">
<feFlood flood-opacity="0" result="BackgroundImageFix"/>
<feColorMatrix in="SourceAlpha" type="matrix" values="0 0 0 0 0 0 0 0 0 0 0 0 0 0 0 0 0 0 127 0" result="hardAlpha"/>
<feOffset dx="5" dy="5"/>
<feGaussianBlur stdDeviation="2.5"/>
<feComposite in2="hardAlpha" operator="out"/>
<feColorMatrix type="matrix" values="0 0 0 0 0 0 0 0 0 0 0 0 0 0 0 0 0 0 0.25 0"/>
<feBlend mode="normal" in2="BackgroundImageFix" result="effect1_dropShadow_0_1"/>
<feBlend mode="normal" in="SourceGraphic" in2="effect1_dropShadow_0_1" result="shape"/>
</filter>
</defs>
</svg>
